<svg xmlns:dc="http://purl.org/dc/elements/1.1/" xmlns:cc="http://creativecommons.org/ns#" xmlns:rdf="http://www.w3.org/1999/02/22-rdf-syntax-ns#" xmlns:svg="http://www.w3.org/2000/svg" xmlns="http://www.w3.org/2000/svg" xmlns:sodipodi="http://sodipodi.sourceforge.net/DTD/sodipodi-0.dtd" xmlns:inkscape="http://www.inkscape.org/namespaces/inkscape" version="1.1" id="svg162" inkscape:version="1.0.1 (3bc2e813f5, 2020-09-07)" sodipodi:docname="onlytracer.svg" viewBox="63.63 53.24 81.97 191.95">
  <defs id="defs156"/>
  <sodipodi:namedview id="base" pagecolor="#ffffff" bordercolor="#666666" borderopacity="1.0" inkscape:pageopacity="0.0" inkscape:pageshadow="2" inkscape:zoom="0.35" inkscape:cx="460.1133" inkscape:cy="571.18232" inkscape:document-units="mm" inkscape:current-layer="layer1" inkscape:document-rotation="0" showgrid="false" inkscape:window-width="1920" inkscape:window-height="1001" inkscape:window-x="-9" inkscape:window-y="-9" inkscape:window-maximized="1"/>
  <metadata id="metadata159">
    <rdf:RDF>
      <cc:Work rdf:about="">
        <dc:format>image/svg+xml</dc:format>
        <dc:type rdf:resource="http://purl.org/dc/dcmitype/StillImage"/>
        <dc:title/>
      </cc:Work>
    </rdf:RDF>
  </metadata>
  <g inkscape:label="Capa 1" inkscape:groupmode="layer" id="layer1">
    <path style="display:inline;fill:none;stroke:#ffffff;stroke-width:0.926809;stroke-linecap:butt;stroke-linejoin:miter;stroke-miterlimit:4;stroke-dasharray:none;stroke-opacity:1" d="m 96.180439,64.371392 c 1.417566,2.4457 3.414845,7.505123 3.205555,11.989935 -0.48111,10.309717 -2.006759,10.918571 -2.006759,10.918571" id="path315" sodipodi:nodetypes="csc"/>
    <path style="display:inline;fill:none;stroke:#ffffff;stroke-width:0.926809;stroke-linecap:butt;stroke-linejoin:miter;stroke-miterlimit:4;stroke-dasharray:none;stroke-opacity:1" d="m 106.89376,88.47138 c 0.4752,-1.13506 1.43135,-5.122262 1.28986,-11.560201 -0.14394,-6.549441 1.41902,-10.494296 2.89354,-12.561846 m 3.2969,-2.963039 c 0.50027,-0.358534 0.61814,-0.441293 0.61814,-0.441293 l 0.74723,-1.294564 -0.15114,-2.039456" id="path317" sodipodi:nodetypes="csccccc"/>
    <path style="display:inline;fill:none;stroke:#ffffff;stroke-width:0.926809;stroke-linecap:butt;stroke-linejoin:miter;stroke-miterlimit:4;stroke-dasharray:none;stroke-opacity:1" d="m 102.79049,77.267017 c -0.31063,-0.142177 -0.91188,-0.417251 -1.23945,-0.768229 -0.96224,-1.030972 -1.06534,-3.745862 -1.51209,-6.563849 -0.446756,-2.817987 -2.096306,-5.979636 -2.233773,-5.945267 0,0 2.233773,-1.065337 2.439963,-1.237165 0.20619,-0.171828 1.2028,-0.962239 1.51209,-1.03097 0.30929,-0.06873 0.37803,0.584216 0.37803,0.584216 0,0 0.17182,0.790411 1.51208,0.756047" id="path338" sodipodi:nodetypes="csscsscc"/>
    <path style="display:inline;fill:none;stroke:#ffffff;stroke-width:0.926809;stroke-linecap:butt;stroke-linejoin:miter;stroke-miterlimit:4;stroke-dasharray:none;stroke-opacity:1" d="m 104.35607,77.332755 c 0.30891,-0.142314 1.06229,-0.485444 1.38758,-0.833967 0.96224,-1.030972 1.06534,-3.745865 1.51209,-6.563849 0.44676,-2.817987 2.09631,-5.979636 2.23378,-5.945267 0,0 -2.23378,-1.065337 -2.43997,-1.237165 -0.20619,-0.171828 -1.2028,-0.962239 -1.51209,-1.03097 -0.30929,-0.06873 -0.37803,0.584216 -0.37803,0.584216 0,0 -0.17182,0.790411 -1.51209,0.756047" id="path338-9" sodipodi:nodetypes="csscsscc"/>
    <path style="display:inline;fill:none;stroke:#ffffff;stroke-width:0.926809;stroke-linecap:butt;stroke-linejoin:miter;stroke-miterlimit:4;stroke-dasharray:none;stroke-opacity:1" d="m 100.34032,62.637138 c -0.009,1.028396 -0.26063,5.181756 1.09805,7.362788" id="path355" sodipodi:nodetypes="cc"/>
    <path style="display:inline;fill:none;stroke:#ffffff;stroke-width:0.926809;stroke-linecap:butt;stroke-linejoin:miter;stroke-miterlimit:4;stroke-dasharray:none;stroke-opacity:1" d="m 102.13526,62.305753 c 0,0 -1.353,2.39672 -0.69689,7.694173" id="path357" sodipodi:nodetypes="cc"/>
    <path style="display:inline;fill:none;stroke:#ffffff;stroke-width:0.926809;stroke-linecap:butt;stroke-linejoin:miter;stroke-miterlimit:4;stroke-dasharray:none;stroke-opacity:1" d="m 92.925249,61.309144 -1.08523,-1.533798 0.143803,-2.256152" id="path394" sodipodi:nodetypes="ccc"/>
    <path style="display:inline;fill:none;stroke:#ffffff;stroke-width:0.926809;stroke-linecap:butt;stroke-linejoin:miter;stroke-miterlimit:4;stroke-dasharray:none;stroke-opacity:1" d="m 106.95437,62.637138 c 0.009,1.028396 0.26063,5.181756 -1.09805,7.362788" id="path355-4" sodipodi:nodetypes="cc"/>
    <path style="display:inline;fill:none;stroke:#ffffff;stroke-width:0.926809;stroke-linecap:butt;stroke-linejoin:miter;stroke-miterlimit:4;stroke-dasharray:none;stroke-opacity:1" d="m 105.15943,62.305753 c 0,0 1.353,2.39672 0.69689,7.694173" id="path357-1" sodipodi:nodetypes="cc"/>
    <path style="display:inline;fill:none;stroke:#ffffff;stroke-width:0.926809;stroke-linecap:butt;stroke-linejoin:miter;stroke-miterlimit:4;stroke-dasharray:none;stroke-opacity:1" d="m 92.925249,61.309144 c 0,0 -9.163237,3.105182 -6.879015,13.845881" id="path1376" sodipodi:nodetypes="cc"/>
    <path style="display:inline;fill:none;stroke:#ffffff;stroke-width:0.926809;stroke-linecap:butt;stroke-linejoin:miter;stroke-miterlimit:4;stroke-dasharray:none;stroke-opacity:1" d="m 114.9193,61.102952 c 0,0 9.12886,2.761525 6.84465,13.502224" id="path1376-9"/>
    <path style="display:inline;fill:none;stroke:#ffffff;stroke-width:0.926809;stroke-linecap:butt;stroke-linejoin:miter;stroke-miterlimit:4;stroke-dasharray:none;stroke-opacity:1" d="m 92.925249,61.309144 c 0,0 0.834221,6.455161 8.756101,0.404402" id="path1427"/>
    <path style="display:inline;fill:none;stroke:#ffffff;stroke-width:0.926809;stroke-linecap:butt;stroke-linejoin:miter;stroke-miterlimit:4;stroke-dasharray:none;stroke-opacity:1" d="m 114.37406,61.386294 c 0,0 -0.9545,6.369246 -8.87639,0.318487" id="path1427-0" sodipodi:nodetypes="cc"/>
    <path style="display:inline;fill:none;stroke:#ffffff;stroke-width:0.926809;stroke-linecap:butt;stroke-linejoin:miter;stroke-miterlimit:4;stroke-dasharray:none;stroke-opacity:1" d="m 102.92912,78.454483 c -0.73857,-0.125505 -2.0059,-0.399939 -2.56204,-0.995821 -0.514266,-0.551 -0.783126,-1.582975 -0.990206,-2.854613" id="path338-0" sodipodi:nodetypes="csc"/>
    <path style="display:inline;fill:none;stroke:#ffffff;stroke-width:0.926809;stroke-linecap:butt;stroke-linejoin:miter;stroke-miterlimit:4;stroke-dasharray:none;stroke-opacity:1" d="m 104.35074,78.468402 c 0.70542,-0.12092 1.93875,-0.395483 2.45009,-0.943329 0.51427,-0.550987 1.26425,-2.33902 1.47133,-3.610658" id="path338-0-8" sodipodi:nodetypes="csc"/>
    <path style="display:inline;fill:none;stroke:#ffffff;stroke-width:0.926809;stroke-linecap:butt;stroke-linejoin:miter;stroke-miterlimit:4;stroke-dasharray:none;stroke-opacity:1" d="m 102.62858,75.84222 c 0,0 0.92787,6.495113 0.72168,7.285529 0,0 0.30929,1.924484 -0.96224,4.192617 -1.27152,2.268135 -3.677126,3.230374 -3.677126,3.230374 0,0 1.580826,0.240562 3.539676,-1.752652 1.95884,-1.993207 1.40898,-2.543059 1.40898,-2.543059 0,0 1.06534,3.677132 4.84557,4.123883" id="path1706"/>
    <path style="display:inline;fill:none;stroke:#ffffff;stroke-width:0.926809;stroke-linecap:butt;stroke-linejoin:miter;stroke-miterlimit:4;stroke-dasharray:none;stroke-opacity:1" d="m 104.58742,75.807853 c 0,0 -1.06532,8.179038 0.0687,10.481543 1.13407,2.302499 1.3059,3.230374 3.84896,4.089516" id="path1708"/>
    <path style="display:inline;fill:none;stroke:#ffffff;stroke-width:0.926809;stroke-linecap:butt;stroke-linejoin:miter;stroke-miterlimit:4;stroke-dasharray:none;stroke-opacity:1" d="m 102.62858,75.842217 c 0,0 0.92786,-7.869748 1.95884,-0.03437" id="path1710"/>
    <path style="display:inline;fill:none;stroke:#ffffff;stroke-width:0.926809;stroke-linecap:butt;stroke-linejoin:miter;stroke-miterlimit:4;stroke-dasharray:none;stroke-opacity:1" d="m 80.759239,168.59133 c 0,0 -4.605009,11.34068 12.440381,8.45396 17.04539,-2.88672 23.6436,5.2236 24.60584,8.59142 0.96225,3.36784 2.4056,12.92153 -1.23716,16.97667 -3.64277,4.05515 -10.24098,7.35426 -10.17225,11.95926 0.0687,4.605 3.57403,8.86636 3.57403,8.86636 0,0 3.78023,5.42978 1.78701,12.57784 -1.9932,7.14808 -6.8044,8.45398 -6.8044,8.45398 0,0 -5.086116,1.23716 -7.285528,-1.78702 -2.199399,-3.02418 1.237162,-2.68053 2.061942,-1.99321 0.824776,0.68731 3.917686,1.03097 5.154846,-0.89352 1.23717,-1.92448 3.50531,-5.56723 -0.96223,-12.78405" id="path27-2"/>
    <path style="display:inline;fill:none;stroke:#ffffff;stroke-width:0.926809;stroke-linecap:butt;stroke-linejoin:miter;stroke-miterlimit:4;stroke-dasharray:none;stroke-opacity:1" d="m 102.26374,99.727369 c 0,0 2.80338,-4.314867 3.37627,-7.909028 0.12539,-0.786681 0.5123,-1.525289 0.76261,-2.007151 m 0.21257,-0.447169 c 0.0883,-0.213665 0.23344,-0.639329 0.27857,-0.892641 m -9.514525,-1.191482 c -0.420222,3.780742 -2.803038,8.286763 -3.148624,8.731073 -0.481129,0.618588 -7.216794,5.154849 -12.371644,5.498509 -5.154864,0.34365 -9.966055,3.43657 -11.684347,5.49851 -1.718281,2.06195 -7.766645,7.49172 -5.635969,16.35807 2.130674,8.86635 4.811192,14.29614 13.127689,16.22062 8.316507,1.92448 21.581664,-5.70471 21.581664,-5.70471 0,0 15.808226,-9.69113 20.550696,-9.07254 4.74247,0.61858 15.5333,3.5053 12.92151,17.87017 -2.61181,14.36486 -24.74332,12.44038 -24.74332,12.44038 0,0 -12.096721,-3.5053 -14.845972,-4.26135 -2.749262,-0.75604 -7.904115,-0.41239 -10.928302,0.68732 -3.024177,1.0997 -7.285527,4.53627 -7.285527,4.53627 0,0 -4.948661,5.22358 -4.811202,10.92828 0.137467,5.70471 -0.06871,10.9283 4.123891,15.73951 4.192616,4.81118 10.447173,5.36103 10.447173,5.36103 0,0 9.347468,0.13748 10.859567,-0.20619 1.512091,-0.34366 11.959262,-1.16842 11.340672,5.22358 0,0 0.61859,3.91772 -4.33007,7.14808 -4.94866,3.23039 -6.598218,8.24778 -6.598218,8.24778 0,0 -1.237162,3.71149 0.06871,7.28552 1.305896,3.57405 3.574032,6.59822 3.574032,6.59822 l 4.330076,4.60499" id="path29-6" sodipodi:nodetypes="csccccssssscsscsscsscscscscc"/>
    <path style="display:inline;fill:none;stroke:#ffffff;stroke-width:0.926809;stroke-linecap:butt;stroke-linejoin:miter;stroke-miterlimit:4;stroke-dasharray:none;stroke-opacity:1" d="m 80.140654,101.64694 c 0,0 -17.045389,8.86635 -10.722099,19.31353 6.32329,10.44718 16.495538,7.14806 16.495538,7.14806 l 18.832397,-9.69113 c 0,0 12.99024,-7.56045 23.29995,-3.09291 10.30972,4.46754 10.17226,14.70853 10.17226,14.70853 0,0 0.48112,10.44717 -3.36785,15.18964 -3.84896,4.74246 -6.32329,7.35426 -12.99023,8.45396" id="path31-3"/>
    <path style="display:inline;fill:none;stroke:#ffffff;stroke-width:0.926809;stroke-linecap:butt;stroke-linejoin:miter;stroke-miterlimit:4;stroke-dasharray:none;stroke-opacity:1" d="m 74.917067,156.08222 c 0,0 -4.535207,10.81096 -1.424778,16.64302 3.110431,5.83205 8.65088,6.70685 8.65088,6.70685 L 84.962,179.6265 c 0,0 15.45493,-1.94402 16.62134,-0.38881 0,0 8.94249,3.01324 7.77607,10.98371 -1.16641,7.97046 -4.76284,8.45648 -4.76284,8.45648" id="path33-0"/>
    <path style="display:inline;fill:none;stroke:#ffffff;stroke-width:0.926809;stroke-linecap:butt;stroke-linejoin:miter;stroke-miterlimit:4;stroke-dasharray:none;stroke-opacity:1" d="m 64.1124,119.89656 c 0,0 1.360815,-4.66564 3.936637,-4.42265" id="path35-2"/>
    <path style="display:inline;fill:none;stroke:#ffffff;stroke-width:0.926809;stroke-linecap:butt;stroke-linejoin:miter;stroke-miterlimit:4;stroke-dasharray:none;stroke-opacity:1" d="m 65.667618,127.28383 c 0.04865,-0.2916 1.26361,-4.66565 4.422642,-5.29746" id="path37-1"/>
    <path style="display:inline;fill:none;stroke:#ffffff;stroke-width:0.926809;stroke-linecap:butt;stroke-linejoin:miter;stroke-miterlimit:4;stroke-dasharray:none;stroke-opacity:1" d="m 74.415695,126.40901 c 0,0 -5.39465,3.64504 -2.478624,10.7893" id="path39-4"/>
    <path style="display:inline;fill:none;stroke:#ffffff;stroke-width:0.926809;stroke-linecap:butt;stroke-linejoin:miter;stroke-miterlimit:4;stroke-dasharray:none;stroke-opacity:1" d="m 80.636555,128.54744 c 0.04866,-0.3888 -6.463856,6.26946 0.680408,11.4211" id="path41-1"/>
    <path style="display:inline;fill:none;stroke:#ffffff;stroke-width:0.926809;stroke-linecap:butt;stroke-linejoin:miter;stroke-miterlimit:4;stroke-dasharray:none;stroke-opacity:1" d="m 85.914093,128.10853 c 0,0 -2.993319,7.82618 2.35273,10.4506" id="path43-2"/>
    <path style="display:inline;fill:none;stroke:#ffffff;stroke-width:0.926809;stroke-linecap:butt;stroke-linejoin:miter;stroke-miterlimit:4;stroke-dasharray:none;stroke-opacity:1" d="m 92.981074,124.5136 c 0,0 -4.082439,8.40787 3.013223,10.98371" id="path45-8"/>
    <path style="display:inline;fill:none;stroke:#ffffff;stroke-width:0.926809;stroke-linecap:butt;stroke-linejoin:miter;stroke-miterlimit:4;stroke-dasharray:none;stroke-opacity:1" d="m 99.639334,121.01436 c 0,0 -2.721623,7.24147 3.790826,10.4491" id="path47-1"/>
    <path style="display:inline;fill:none;stroke:#ffffff;stroke-width:0.926809;stroke-linecap:butt;stroke-linejoin:miter;stroke-miterlimit:4;stroke-dasharray:none;stroke-opacity:1" d="m 108.72761,116.54313 c 0,0 -4.13104,7.48447 1.36081,11.3725" id="path49-3"/>
    <path style="display:inline;fill:none;stroke:#ffffff;stroke-width:0.926809;stroke-linecap:butt;stroke-linejoin:miter;stroke-miterlimit:4;stroke-dasharray:none;stroke-opacity:1" d="m 118.01029,114.0159 c 0,0 -5.20024,6.36666 -1.06921,11.17811" id="path51-7"/>
    <path style="display:inline;fill:none;stroke:#ffffff;stroke-width:0.926809;stroke-linecap:butt;stroke-linejoin:miter;stroke-miterlimit:4;stroke-dasharray:none;stroke-opacity:1" d="m 128.36219,115.37672 c 0,0 -8.99108,0.0485 -5.44325,10.06029" id="path53-2"/>
    <path style="display:inline;fill:none;stroke:#ffffff;stroke-width:0.926809;stroke-linecap:butt;stroke-linejoin:miter;stroke-miterlimit:4;stroke-dasharray:none;stroke-opacity:1" d="m 133.95124,119.55635 c 0,0 -6.51246,-0.82621 -5.63765,8.40788" id="path55-2"/>
    <path style="display:inline;fill:none;stroke:#ffffff;stroke-width:0.926809;stroke-linecap:butt;stroke-linejoin:miter;stroke-miterlimit:4;stroke-dasharray:none;stroke-opacity:1" d="m 137.69347,126.50622 c 0,0 -3.74223,-3.11043 -5.29744,6.94986" id="path57-0"/>
    <path style="display:inline;fill:none;stroke:#ffffff;stroke-width:0.926809;stroke-linecap:butt;stroke-linejoin:miter;stroke-miterlimit:4;stroke-dasharray:none;stroke-opacity:1" d="m 133.17363,137.53852 c 0,0 3.54783,-7.04707 5.10305,-3.79084" id="path59-6"/>
    <path style="display:inline;fill:none;stroke:#ffffff;stroke-width:0.926809;stroke-linecap:butt;stroke-linejoin:miter;stroke-miterlimit:4;stroke-dasharray:none;stroke-opacity:1" d="m 72.648935,170.10342 c 0,0 -1.993218,1.58082 -2.19941,3.84896" id="path61-1"/>
    <path style="display:inline;fill:none;stroke:#ffffff;stroke-width:0.926809;stroke-linecap:butt;stroke-linejoin:miter;stroke-miterlimit:4;stroke-dasharray:none;stroke-opacity:1" d="m 75.054526,175.05208 c 0,0 -2.817987,2.23377 -1.71828,6.59821" id="path63-7"/>
    <path style="display:inline;fill:none;stroke:#ffffff;stroke-width:0.926809;stroke-linecap:butt;stroke-linejoin:miter;stroke-miterlimit:4;stroke-dasharray:none;stroke-opacity:1" d="m 79.590802,178.55738 c 0,0 -2.98981,2.61178 -0.652944,7.76666" id="path65-0"/>
    <path style="display:inline;fill:none;stroke:#ffffff;stroke-width:0.926809;stroke-linecap:butt;stroke-linejoin:miter;stroke-miterlimit:4;stroke-dasharray:none;stroke-opacity:1" d="m 84.962,179.6265 c -0.808434,1.98431 -1.681385,6.26652 1.020826,8.58764" id="path67-6" sodipodi:nodetypes="cc"/>
    <path style="display:inline;fill:none;stroke:#ffffff;stroke-width:0.926809;stroke-linecap:butt;stroke-linejoin:miter;stroke-miterlimit:4;stroke-dasharray:none;stroke-opacity:1" d="m 106.12112,181.95958 c 0,0 -3.4022,1.85576 -1.85574,6.80442" id="path69-2"/>
    <path style="display:inline;fill:none;stroke:#ffffff;stroke-width:0.926809;stroke-linecap:butt;stroke-linejoin:miter;stroke-miterlimit:4;stroke-dasharray:none;stroke-opacity:1" d="m 99.144884,178.66048 c -0.0687,0.17184 -3.986414,3.05856 0.962246,9.14128" id="path71-1"/>
    <path style="display:inline;fill:none;stroke:#ffffff;stroke-width:0.926809;stroke-linecap:butt;stroke-linejoin:miter;stroke-miterlimit:4;stroke-dasharray:none;stroke-opacity:1" d="m 92.340486,178.9354 c 0,0 -4.536276,5.08614 2.268133,9.10692" id="path73-9"/>
    <path style="fill:none;stroke:#ffffff;stroke-width:0.926809;stroke-linecap:butt;stroke-linejoin:miter;stroke-miterlimit:4;stroke-dasharray:none;stroke-opacity:1" d="m 102.26374,99.727369 c 0,0 -3.790818,7.484471 -9.039668,9.525691 -5.248851,2.04122 -13.608121,3.79083 -13.608121,3.79083 0,0 -8.135456,2.41806 -3.289885,10.63147 4.845558,8.2134 20.653785,-2.47433 20.653785,-2.47433 l 9.657939,-5.1439 c 0,0 15.06613,-7.09568 25.36943,-1.79822 10.3033,5.29744 12.15012,14.58013 12.15012,14.58013 0,0 2.99644,13.84056 -1.53983,22.63817 -4.53628,8.79762 -11.06576,12.028 -11.06576,12.028 0,0 -5.63598,3.23037 -15.46457,4.94866 -9.8286,1.71828 -23.987253,-3.91769 -23.987253,-3.91769 0,0 -6.80442,-2.68053 -11.340688,4.05515" id="path25-1"/>
    <path style="fill:none;stroke:#ffffff;stroke-width:0.926809;stroke-linecap:butt;stroke-linejoin:miter;stroke-miterlimit:4;stroke-dasharray:none;stroke-opacity:1" d="m 106.89376,88.47138 c 0.65295,-0.82477 14.60543,-8.660154 15.87696,-16.907923 1.27153,-8.247771 -4.08951,-11.20322 -4.57064,-11.649977 -0.48112,-0.446752 -2.61179,-2.302499 -2.61179,-2.302499 0,0 -1.16843,-3.986424 -4.26134,-3.814593 -3.09293,0.171825 -2.31603,1.976532 -5.27148,2.870038" id="path296" sodipodi:nodetypes="csscsc"/>
    <path style="fill:none;stroke:#ffffff;stroke-width:0.926809;stroke-linecap:butt;stroke-linejoin:miter;stroke-miterlimit:4;stroke-dasharray:none;stroke-opacity:1" d="M 97.379235,87.279898 C 96.726283,86.45512 86.072917,79.71944 84.801388,71.471671 c -1.27153,-8.247769 4.089513,-11.203218 4.570642,-11.649975 0.481119,-0.446751 2.611792,-2.302502 2.611792,-2.302502 0,0 1.168429,-3.986424 4.261329,-3.814593 3.092923,0.171828 2.680533,2.268138 5.635979,3.161644 2.95545,0.893511 5.78523,-0.965692 5.78523,-0.965692" id="path296-7" sodipodi:nodetypes="csscssc"/>
    <path style="fill:none;stroke:#ffffff;stroke-width:0.926809;stroke-linecap:butt;stroke-linejoin:miter;stroke-miterlimit:4;stroke-dasharray:none;stroke-opacity:1" d="m 107.75685,60.385343 c 0.44774,-0.85217 2.05032,-3.790225 3.83987,-4.351126 1.78954,-0.5609 1.54915,1.709413 1.54915,1.709413 0,0 0.13355,2.804506 -2.48399,3.552375 -2.61754,0.747868 -2.90503,-0.910662 -2.90503,-0.910662 z" id="path2138-4"/>
    <path style="fill:none;stroke:#ffffff;stroke-width:0.926809;stroke-linecap:butt;stroke-linejoin:miter;stroke-miterlimit:4;stroke-dasharray:none;stroke-opacity:1" d="m 111.80305,56.849735 c 0,0 1.6809,1.605351 -1.2654,4.098374 -0.0567,0.01889 -1.60535,-0.20775 -1.47315,-1.83199 0.1322,-1.624243 2.73855,-2.266384 2.73855,-2.266384 z" id="path2140-3"/>
    <path style="fill:none;stroke:#ffffff;stroke-width:0.926809;stroke-linecap:butt;stroke-linejoin:miter;stroke-miterlimit:4;stroke-dasharray:none;stroke-opacity:1" d="m 110.80531,59.605177 -0.26766,1.076314 c 0,0 -0.32107,0.314564 -0.45327,-0.332041 -0.13221,-0.646605 -0.45327,-1.922341 -0.30218,-2.236909 0.1511,-0.314566 0.9632,-0.733986 0.9632,-0.733986 0,0 0.18125,1.497613 0.10572,1.515089 -0.0755,0.01746 -0.84227,-1.20164 -0.86897,-1.041384" id="path2142-8" sodipodi:nodetypes="ccsscsc"/>
    <path style="fill:none;stroke:#ffffff;stroke-width:0.926809;stroke-linecap:butt;stroke-linejoin:miter;stroke-miterlimit:4;stroke-dasharray:none;stroke-opacity:1" d="m 101.68135,61.713544 c 0,0 2.35963,-0.941121 3.81632,-0.0087" id="path2191"/>
    <path style="fill:none;stroke:#ffffff;stroke-width:0.926809;stroke-linecap:butt;stroke-linejoin:miter;stroke-miterlimit:4;stroke-dasharray:none;stroke-opacity:1" d="m 99.576544,60.321931 c -0.44775,-0.85217 -2.050325,-3.790225 -3.839872,-4.351126 -1.789544,-0.560901 -1.549151,1.709412 -1.549151,1.709412 0,0 -0.133548,2.804506 2.483996,3.552375 2.617527,0.747869 2.905027,-0.910661 2.905027,-0.910661 z" id="path2138-4-0"/>
    <path style="fill:none;stroke:#ffffff;stroke-width:0.926809;stroke-linecap:butt;stroke-linejoin:miter;stroke-miterlimit:4;stroke-dasharray:none;stroke-opacity:1" d="m 95.530337,56.786319 c 0,0 -1.680901,1.605354 1.265409,4.098378 0.05668,0.01889 1.605347,-0.207751 1.473142,-1.831991 -0.132199,-1.624243 -2.738551,-2.266387 -2.738551,-2.266387 z" id="path2140-3-6"/>
    <path style="fill:none;stroke:#ffffff;stroke-width:0.926809;stroke-linecap:butt;stroke-linejoin:miter;stroke-miterlimit:4;stroke-dasharray:none;stroke-opacity:1" d="m 96.528081,59.541764 0.267665,1.076315 c 0,0 0.321062,0.314563 0.453261,-0.332044 0.132212,-0.646602 0.453273,-1.922339 0.302186,-2.236907 -0.151099,-0.314566 -0.963203,-0.733986 -0.963203,-0.733986 0,0 -0.181247,1.497611 -0.105714,1.515089 0.0755,0.01746 0.842267,-1.201642 0.868968,-1.041384" id="path2142-8-9" sodipodi:nodetypes="ccsscsc"/>
    <path style="fill:none;stroke:#ffffff;stroke-width:0.926809;stroke-linecap:butt;stroke-linejoin:miter;stroke-miterlimit:4;stroke-dasharray:none;stroke-opacity:1" d="m 109.39872,67.959208 c 0,0 6.32329,-1.477724 7.69792,-5.670344" id="path2340" sodipodi:nodetypes="cc"/>
    <path style="fill:none;stroke:#ffffff;stroke-width:0.926809;stroke-linecap:butt;stroke-linejoin:miter;stroke-miterlimit:4;stroke-dasharray:none;stroke-opacity:1" d="m 108.78014,70.399172 c 0,0 10.37844,-1.924476 11.06576,-5.773439" id="path2342"/>
    <path style="fill:none;stroke:#ffffff;stroke-width:0.926809;stroke-linecap:butt;stroke-linejoin:miter;stroke-miterlimit:4;stroke-dasharray:none;stroke-opacity:1" d="m 108.50522,72.186189 c 0,0 12.16545,-0.756045 12.92149,-4.948661" id="path2344"/>
    <path style="fill:none;stroke:#ffffff;stroke-width:0.926809;stroke-linecap:butt;stroke-linejoin:miter;stroke-miterlimit:4;stroke-dasharray:none;stroke-opacity:1" d="m 108.27216,73.914415 c 0,0 13.01709,0.539912 13.84186,-2.759197" id="path2346" sodipodi:nodetypes="cc"/>
    <path style="fill:none;stroke:#ffffff;stroke-width:0.926809;stroke-linecap:butt;stroke-linejoin:miter;stroke-miterlimit:4;stroke-dasharray:none;stroke-opacity:1" d="m 108.09282,76.103882 c 0,0 12.03444,1.086316 12.85278,-0.206198" id="path2348"/>
    <path style="fill:none;stroke:#ffffff;stroke-width:0.926809;stroke-linecap:butt;stroke-linejoin:miter;stroke-miterlimit:4;stroke-dasharray:none;stroke-opacity:1" d="m 108.16156,77.890896 c 0,0 8.45396,2.268138 10.85956,0.824778" id="path2350"/>
    <path style="fill:none;stroke:#ffffff;stroke-width:0.926809;stroke-linecap:butt;stroke-linejoin:miter;stroke-miterlimit:4;stroke-dasharray:none;stroke-opacity:1" d="m 108.23029,80.502691 c 0,0 5.22359,1.993212 7.76665,1.168434" id="path2352"/>
    <path style="fill:none;stroke:#ffffff;stroke-width:0.926809;stroke-linecap:butt;stroke-linejoin:miter;stroke-miterlimit:4;stroke-dasharray:none;stroke-opacity:1" d="m 108.0241,82.770829 c 0,0 2.61179,2.336869 4.87992,1.443358" id="path2354"/>
    <path style="fill:none;stroke:#ffffff;stroke-width:0.926809;stroke-linecap:butt;stroke-linejoin:miter;stroke-miterlimit:4;stroke-dasharray:none;stroke-opacity:1" d="m 107.74916,85.245154 c 0,0 0.34366,2.405602 2.74926,0.687321" id="path2356"/>
    <path style="fill:none;stroke:#ffffff;stroke-width:0.926809;stroke-linecap:butt;stroke-linejoin:miter;stroke-miterlimit:4;stroke-dasharray:none;stroke-opacity:1" d="m 97.764502,67.948304 c 0,0 -6.330913,-0.860152 -7.705542,-5.052771" id="path2340-5" sodipodi:nodetypes="cc"/>
    <path style="fill:none;stroke:#ffffff;stroke-width:0.926809;stroke-linecap:butt;stroke-linejoin:miter;stroke-miterlimit:4;stroke-dasharray:none;stroke-opacity:1" d="m 98.484344,70.490508 c 0,0 -10.062525,-1.43847 -10.749847,-5.287433" id="path2342-1" sodipodi:nodetypes="cc"/>
    <path style="fill:none;stroke:#ffffff;stroke-width:0.926809;stroke-linecap:butt;stroke-linejoin:miter;stroke-miterlimit:4;stroke-dasharray:none;stroke-opacity:1" d="m 99.151754,73.298791 c 0,0 -12.165451,-0.756045 -12.921497,-4.948661" id="path2344-4"/>
    <path style="fill:none;stroke:#ffffff;stroke-width:0.926809;stroke-linecap:butt;stroke-linejoin:miter;stroke-miterlimit:4;stroke-dasharray:none;stroke-opacity:1" d="m 99.449674,75.411928 c 0,0 -4.291574,-0.111943 -7.920419,-0.892101 -3.025341,-0.650412 -5.453798,-1.92246 -5.825861,-2.510105" id="path2348-3" sodipodi:nodetypes="csc"/>
    <path style="fill:none;stroke:#ffffff;stroke-width:0.926809;stroke-linecap:butt;stroke-linejoin:miter;stroke-miterlimit:4;stroke-dasharray:none;stroke-opacity:1" d="m 99.209484,77.098435 c 0,0 -3.694339,0.203692 -7.188475,-0.172053 -2.485723,-0.267306 -4.974809,-1.171377 -5.974775,-1.771357" id="path2350-7" sodipodi:nodetypes="csc"/>
    <path style="fill:none;stroke:#ffffff;stroke-width:0.926809;stroke-linecap:butt;stroke-linejoin:miter;stroke-miterlimit:4;stroke-dasharray:none;stroke-opacity:1" d="m 99.192104,79.368621 c 0,0 -10.034783,1.030972 -11.512505,-1.271532" id="path2433" sodipodi:nodetypes="cc"/>
    <path style="fill:none;stroke:#ffffff;stroke-width:0.926809;stroke-linecap:butt;stroke-linejoin:miter;stroke-miterlimit:4;stroke-dasharray:none;stroke-opacity:1" d="m 98.985914,81.396199 c 0,0 -4.295714,1.752651 -8.694523,-0.240561" id="path2435"/>
    <path style="fill:none;stroke:#ffffff;stroke-width:0.926809;stroke-linecap:butt;stroke-linejoin:miter;stroke-miterlimit:4;stroke-dasharray:none;stroke-opacity:1" d="m 98.642254,83.87053 c 0,0 -1.477718,1.54646 -5.532876,-0.03437" id="path2437"/>
  </g>
</svg>